<?xml version="1.0" standalone="no"?>
<!DOCTYPE svg PUBLIC "-//W3C//DTD SVG 20010904//EN"
 "http://www.w3.org/TR/2001/REC-SVG-20010904/DTD/svg10.dtd">
<svg version="1.0" xmlns="http://www.w3.org/2000/svg"
 width="1280.000000pt" height="1280.000000pt" viewBox="0 0 1280.000000 1280.000000"
 preserveAspectRatio="xMidYMid meet">
<metadata>
Created by potrace 1.11, written by Peter Selinger 2001-2013
</metadata>
<g transform="translate(0.000000,1280.000000) scale(0.100000,-0.100000)"
fill="#000000" stroke="none">
<path d="M7775 12775 c-136 -35 -242 -77 -440 -175 -341 -168 -804 -465 -1285
-823 -74 -56 -137 -103 -140 -107 -3 -3 -36 -30 -75 -60 -38 -30 -72 -57 -75
-60 -3 -4 -43 -37 -90 -75 -47 -37 -89 -73 -95 -79 -5 -6 -28 -26 -50 -45
-162 -137 -548 -515 -684 -668 -59 -67 -67 -73 -103 -73 -22 0 -45 -6 -51 -13
-19 -20 -99 -110 -132 -147 -17 -19 -51 -62 -75 -95 -25 -33 -47 -62 -51 -65
-8 -7 -127 -199 -131 -212 -3 -7 -71 15 -184 59 -442 176 -679 240 -1027 280
-112 13 -317 7 -387 -12 -235 -62 -336 -204 -326 -460 11 -272 130 -570 321
-802 110 -133 270 -280 392 -358 52 -34 64 -46 73 -80 23 -85 65 -169 127
-252 l63 -85 -57 -87 c-358 -542 -301 -1014 167 -1391 30 -24 59 -47 64 -51 5
-4 -11 -13 -34 -19 -24 -6 -39 -15 -34 -20 19 -18 286 -130 429 -179 83 -29
196 -71 252 -93 l103 -40 -29 -37 c-47 -60 -86 -128 -344 -591 -16 -30 -69
-125 -117 -210 -143 -256 -176 -320 -223 -435 -83 -202 -120 -351 -119 -485 0
-98 13 -157 48 -218 l25 -42 -42 -76 c-87 -158 -258 -342 -388 -419 -86 -50
-211 -160 -252 -220 -21 -32 -28 -35 -59 -31 -19 3 -71 8 -115 11 -44 3 -87 8
-95 10 -8 2 -46 7 -85 10 -38 4 -72 8 -75 10 -3 2 -35 6 -70 9 -36 3 -76 8
-90 11 -14 3 -72 12 -130 20 -510 75 -1320 260 -1699 390 -102 34 -126 33
-165 -10 -45 -49 -68 -122 -72 -225 -8 -217 73 -421 231 -581 138 -140 373
-253 590 -284 22 -3 54 -7 70 -10 17 -3 53 -7 80 -10 53 -6 884 -7 995 -1 36
2 142 7 235 10 94 4 186 9 205 11 19 2 78 7 130 10 52 3 113 8 135 10 22 2 74
6 115 10 41 3 85 8 97 10 21 5 21 4 6 -43 -68 -221 -95 -424 -69 -534 18 -76
46 -124 115 -200 173 -188 369 -288 596 -302 204 -13 304 -69 408 -226 77
-118 209 -182 376 -183 139 -1 224 33 308 122 l32 34 93 -70 c157 -118 424
-285 590 -369 47 -24 49 -26 44 -59 -4 -19 -8 -52 -11 -73 -3 -20 -8 -50 -10
-67 -3 -16 -7 -50 -10 -75 -17 -137 -50 -237 -118 -349 -107 -179 -114 -222
-38 -261 227 -115 673 70 835 347 19 32 43 66 54 76 20 19 175 87 196 87 28 0
196 91 252 136 72 58 111 100 170 181 l45 62 91 -4 c193 -8 303 -28 478 -88
115 -39 140 -50 140 -64 0 -7 19 -29 41 -50 55 -50 85 -99 101 -164 12 -51 15
-200 9 -655 l-1 -131 -55 -72 c-30 -40 -55 -81 -55 -91 0 -31 55 -45 170 -44
97 1 216 23 279 53 220 104 329 190 415 324 57 88 99 207 112 312 4 28 8 52 9
55 4 7 18 205 18 260 1 191 -53 432 -121 549 -15 25 -59 79 -99 119 -40 39
-73 80 -73 90 0 38 -69 120 -124 149 -43 22 -102 18 -142 -9 -18 -13 -35 -29
-36 -36 -4 -17 -111 47 -235 140 -87 65 -303 262 -303 277 0 4 40 30 88 58
172 101 336 254 444 415 92 136 142 265 168 433 12 76 16 265 6 311 -3 16 -8
45 -10 64 -7 54 -34 167 -57 238 -12 35 -19 64 -18 66 2 1 45 17 94 35 218 80
540 227 715 327 123 70 388 247 410 273 3 4 29 26 59 51 l54 44 21 -28 c136
-180 333 -319 520 -366 175 -44 408 -11 591 83 22 12 45 22 51 23 6 1 29 13
50 26 21 14 71 45 109 69 64 40 253 175 265 189 6 6 316 251 371 292 148 110
406 193 674 216 103 8 395 8 461 -1 l52 -7 6 43 c11 69 16 117 20 192 l5 70
-68 67 c-49 47 -82 71 -120 85 -44 15 -48 19 -29 24 33 8 94 -8 161 -41 31
-16 57 -26 57 -23 0 14 -68 92 -100 115 -46 33 -86 46 -138 44 -23 0 -42 2
-42 5 0 14 124 36 196 35 l77 -1 -8 95 c-13 171 -18 205 -36 204 -116 -8 -272
-40 -344 -70 -87 -36 -31 -2 149 89 l193 98 -38 162 c-45 194 -80 317 -89 317
-4 0 -23 -17 -42 -38 -59 -63 -129 -118 -203 -161 -47 -27 -187 -83 -180 -72
2 5 48 43 102 86 176 140 281 274 270 343 -5 30 -74 196 -119 286 l-29 58 -27
-25 c-31 -28 -98 -55 -109 -43 -5 5 -3 11 4 13 14 5 68 89 77 120 5 16 -2 36
-26 71 l-33 49 -60 -33 c-77 -43 -87 -43 -43 2 20 19 42 49 48 64 11 27 9 33
-20 70 l-32 40 -40 -53 c-22 -28 -64 -74 -93 -102 -54 -52 -175 -141 -175
-130 0 4 20 27 45 52 68 69 124 198 139 318 7 65 -9 71 -63 24 -52 -46 -100
-73 -150 -84 -30 -6 -33 -5 -27 11 13 32 43 157 50 208 5 33 4 46 -3 41 -6 -3
-11 -14 -11 -23 0 -34 -112 -202 -134 -202 -3 0 3 15 13 33 36 63 53 155 42
227 l-6 35 -23 -38 c-25 -43 -94 -128 -99 -123 -2 2 1 16 7 31 6 15 13 53 16
84 3 31 7 61 9 67 6 19 -8 30 -72 63 l-62 31 -7 -38 c-7 -35 -43 -104 -61
-115 -4 -3 -8 33 -8 80 0 78 -2 86 -25 103 -30 22 -32 20 -49 -45 -15 -60 -26
-75 -29 -37 -3 44 -26 115 -39 119 -6 2 -13 -7 -17 -20 -3 -13 -24 -44 -46
-68 l-40 -44 11 33 c11 31 8 107 -4 119 -3 2 -20 7 -39 9 -18 3 -39 7 -45 9
-9 3 -13 -8 -14 -33 -2 -53 -5 -71 -23 -122 l-15 -45 0 40 c2 92 -1 158 -6
153 -3 -3 -21 -61 -40 -129 -79 -290 -184 -578 -286 -784 -83 -170 -109 -206
-244 -341 -105 -105 -143 -135 -305 -239 -306 -197 -444 -300 -574 -429 -124
-122 -249 -299 -282 -398 -13 -39 -19 -48 -33 -42 -33 14 -168 42 -236 49
-246 26 -787 40 -921 24 -240 -28 -242 -29 -409 -67 -288 -67 -564 -175 -854
-337 -35 -20 -76 -45 -91 -55 -16 -11 -32 -20 -37 -20 -5 0 -27 18 -48 41 -47
47 -151 117 -215 144 -57 24 -52 19 -56 57 -24 227 -80 482 -146 673 -32 94
-119 279 -144 306 -20 22 -18 37 12 100 29 60 139 228 179 272 l25 28 68 -58
c37 -32 69 -60 72 -63 31 -31 261 -204 370 -277 217 -148 229 -154 289 -154
31 -1 60 0 66 0 5 1 -11 22 -35 47 -25 26 -40 44 -34 41 38 -21 252 -27 374
-10 132 18 344 73 366 95 5 5 -165 62 -265 88 -23 6 -40 14 -37 17 3 3 25 1
48 -6 121 -32 303 -41 423 -21 93 15 227 52 218 61 -4 4 -66 22 -138 40 -128
32 -187 54 -103 39 23 -5 90 -7 148 -5 119 4 193 22 315 80 l80 37 -40 13
c-22 8 -62 20 -90 28 l-50 15 65 2 c102 3 190 21 304 62 69 26 69 26 -96 58
-65 13 -117 25 -115 26 6 5 159 19 315 29 61 3 61 11 0 19 -29 4 -69 11 -88
16 -19 5 -48 12 -65 16 -29 7 -29 7 15 15 79 13 290 52 350 64 14 3 41 8 60
11 45 7 59 21 23 22 -25 1 -371 46 -433 56 -14 3 -47 7 -74 11 -27 3 -52 8
-55 9 -3 2 -28 6 -56 10 -52 6 -59 7 -190 31 -44 8 -93 17 -110 20 -16 3 -73
14 -125 25 -52 11 -104 22 -115 24 -80 16 -117 24 -121 28 -2 3 21 10 51 17
182 41 444 153 550 235 242 189 249 421 19 653 -124 125 -323 247 -534 329
-83 31 -296 99 -342 108 -13 2 -82 19 -154 36 l-131 32 42 96 c24 53 59 148
80 210 35 105 36 114 21 131 -16 17 -14 25 19 117 19 55 40 108 45 119 33 68
359 1004 566 1627 l76 226 29 -10 c62 -22 119 9 165 90 15 26 25 32 54 33 19
0 44 4 55 8 14 6 31 -1 64 -26 192 -147 592 -238 1036 -236 370 2 616 83 825
271 l45 41 -25 24 c-32 31 -135 69 -425 156 -229 69 -382 120 -482 160 -228
90 -584 322 -1165 754 -109 81 -210 153 -226 159 -51 21 -180 18 -277 -7z
m-4431 -4188 c9 -30 27 -70 41 -91 31 -45 31 -44 1 -81 -27 -33 -25 -35 -50
55 -26 93 -35 170 -20 170 7 0 20 -24 28 -53z m5916 -3492 c11 -44 35 -113 51
-154 16 -41 28 -76 26 -78 -17 -16 -247 -147 -359 -203 l-138 -69 6 107 c6
119 -3 102 108 185 109 80 265 260 266 306 1 29 16 -8 40 -94z m-1120 -3280
c0 -10 -16 -4 -40 16 l-25 20 33 -16 c17 -8 32 -18 32 -20z"/>
</g>
</svg>
